<mxfile host="app.diagrams.net" modified="2022-02-03T13:02:53.767Z" agent="5.0 (Macintosh; Intel Mac OS X 10_15_7) AppleWebKit/537.36 (KHTML, like Gecko) Chrome/97.0.4692.71 Safari/537.36" etag="fnJFJZestxLAliw5whHi" version="16.4.2" type="github">
  <diagram id="Jw-jr7msDzuCzmgpvzfZ" name="Page-1">
    <mxGraphModel dx="1833" dy="988" grid="1" gridSize="10" guides="1" tooltips="1" connect="1" arrows="1" fold="1" page="1" pageScale="1" pageWidth="1169" pageHeight="1654" math="0" shadow="0">
      <root>
        <mxCell id="0" />
        <mxCell id="1" parent="0" />
        <mxCell id="1JTRFG1x_6FWv0XIalLU-54" value="" style="rounded=0;whiteSpace=wrap;html=1;fontSize=14;" vertex="1" parent="1">
          <mxGeometry x="670" y="543" width="190" height="117" as="geometry" />
        </mxCell>
        <mxCell id="1JTRFG1x_6FWv0XIalLU-57" style="edgeStyle=none;rounded=0;orthogonalLoop=1;jettySize=auto;html=1;fontSize=14;startArrow=none;startFill=0;endArrow=none;endFill=0;targetPerimeterSpacing=0;exitX=1;exitY=0.5;exitDx=0;exitDy=0;" edge="1" parent="1" source="1JTRFG1x_6FWv0XIalLU-50">
          <mxGeometry relative="1" as="geometry">
            <mxPoint x="670" y="600" as="targetPoint" />
          </mxGeometry>
        </mxCell>
        <mxCell id="1JTRFG1x_6FWv0XIalLU-58" style="edgeStyle=none;rounded=0;orthogonalLoop=1;jettySize=auto;html=1;entryX=0.5;entryY=0;entryDx=0;entryDy=0;fontSize=14;startArrow=none;startFill=0;endArrow=classic;endFill=1;targetPerimeterSpacing=0;" edge="1" parent="1" source="1JTRFG1x_6FWv0XIalLU-50" target="1JTRFG1x_6FWv0XIalLU-19">
          <mxGeometry relative="1" as="geometry" />
        </mxCell>
        <mxCell id="1JTRFG1x_6FWv0XIalLU-50" value="" style="rounded=0;whiteSpace=wrap;html=1;fontSize=14;" vertex="1" parent="1">
          <mxGeometry x="337" y="669" width="262.5" height="60" as="geometry" />
        </mxCell>
        <mxCell id="1JTRFG1x_6FWv0XIalLU-51" style="edgeStyle=none;rounded=0;orthogonalLoop=1;jettySize=auto;html=1;entryX=0.5;entryY=0;entryDx=0;entryDy=0;fontSize=14;startArrow=none;startFill=0;endArrow=classic;endFill=1;targetPerimeterSpacing=0;" edge="1" parent="1" source="1JTRFG1x_6FWv0XIalLU-46" target="1JTRFG1x_6FWv0XIalLU-50">
          <mxGeometry relative="1" as="geometry" />
        </mxCell>
        <mxCell id="1JTRFG1x_6FWv0XIalLU-56" style="edgeStyle=none;rounded=0;orthogonalLoop=1;jettySize=auto;html=1;fontSize=14;startArrow=none;startFill=0;endArrow=none;endFill=0;targetPerimeterSpacing=0;" edge="1" parent="1" source="1JTRFG1x_6FWv0XIalLU-46">
          <mxGeometry relative="1" as="geometry">
            <mxPoint x="670" y="601" as="targetPoint" />
          </mxGeometry>
        </mxCell>
        <mxCell id="1JTRFG1x_6FWv0XIalLU-46" value="" style="rounded=0;whiteSpace=wrap;html=1;fontSize=14;" vertex="1" parent="1">
          <mxGeometry x="337.5" y="571" width="262.5" height="60" as="geometry" />
        </mxCell>
        <mxCell id="1JTRFG1x_6FWv0XIalLU-14" style="edgeStyle=orthogonalEdgeStyle;rounded=0;orthogonalLoop=1;jettySize=auto;html=1;entryX=0.5;entryY=0;entryDx=0;entryDy=0;fontSize=14;" edge="1" parent="1" source="1JTRFG1x_6FWv0XIalLU-3" target="1JTRFG1x_6FWv0XIalLU-7">
          <mxGeometry relative="1" as="geometry" />
        </mxCell>
        <mxCell id="1JTRFG1x_6FWv0XIalLU-3" value="" style="outlineConnect=0;dashed=0;verticalLabelPosition=bottom;verticalAlign=top;align=center;html=1;shape=mxgraph.aws3.mobile_client;fillColor=#D2D3D3;gradientColor=none;fontSize=14;" vertex="1" parent="1">
          <mxGeometry x="450.5" y="233.5" width="30.5" height="43" as="geometry" />
        </mxCell>
        <mxCell id="1JTRFG1x_6FWv0XIalLU-5" value="" style="sketch=0;points=[[0.015,0.015,0],[0.985,0.015,0],[0.985,0.985,0],[0.015,0.985,0],[0.25,0,0],[0.5,0,0],[0.75,0,0],[1,0.25,0],[1,0.5,0],[1,0.75,0],[0.75,1,0],[0.5,1,0],[0.25,1,0],[0,0.75,0],[0,0.5,0],[0,0.25,0]];verticalLabelPosition=bottom;html=1;verticalAlign=top;aspect=fixed;align=center;pointerEvents=1;shape=mxgraph.cisco19.dns_server;fillColor=#005073;strokeColor=none;fontSize=14;" vertex="1" parent="1">
          <mxGeometry x="610.5" y="230" width="27.500000000000004" height="50" as="geometry" />
        </mxCell>
        <mxCell id="1JTRFG1x_6FWv0XIalLU-15" style="edgeStyle=orthogonalEdgeStyle;rounded=0;orthogonalLoop=1;jettySize=auto;html=1;entryX=0.5;entryY=0;entryDx=0;entryDy=0;fontSize=14;" edge="1" parent="1" source="1JTRFG1x_6FWv0XIalLU-7" target="1JTRFG1x_6FWv0XIalLU-9">
          <mxGeometry relative="1" as="geometry" />
        </mxCell>
        <mxCell id="1JTRFG1x_6FWv0XIalLU-7" value="LVS，F5" style="rounded=0;whiteSpace=wrap;html=1;fillColor=#d5e8d4;strokeColor=#82b366;fontSize=14;" vertex="1" parent="1">
          <mxGeometry x="340" y="330" width="250" height="40" as="geometry" />
        </mxCell>
        <mxCell id="1JTRFG1x_6FWv0XIalLU-8" value="接入层" style="text;html=1;strokeColor=none;fillColor=none;align=center;verticalAlign=middle;whiteSpace=wrap;rounded=0;fontSize=14;" vertex="1" parent="1">
          <mxGeometry x="260" y="335" width="60" height="30" as="geometry" />
        </mxCell>
        <mxCell id="1JTRFG1x_6FWv0XIalLU-17" style="edgeStyle=orthogonalEdgeStyle;rounded=0;orthogonalLoop=1;jettySize=auto;html=1;fontSize=14;" edge="1" parent="1" source="1JTRFG1x_6FWv0XIalLU-9" target="1JTRFG1x_6FWv0XIalLU-16">
          <mxGeometry relative="1" as="geometry" />
        </mxCell>
        <mxCell id="1JTRFG1x_6FWv0XIalLU-9" value="Nginx" style="rounded=0;whiteSpace=wrap;html=1;fillColor=#ffe6cc;strokeColor=#d79b00;fontSize=14;" vertex="1" parent="1">
          <mxGeometry x="340" y="410" width="250" height="40" as="geometry" />
        </mxCell>
        <mxCell id="1JTRFG1x_6FWv0XIalLU-10" value="反向代理层" style="text;html=1;strokeColor=none;fillColor=none;align=center;verticalAlign=middle;whiteSpace=wrap;rounded=0;fontSize=14;" vertex="1" parent="1">
          <mxGeometry x="247.5" y="415" width="85" height="30" as="geometry" />
        </mxCell>
        <mxCell id="1JTRFG1x_6FWv0XIalLU-12" value="" style="endArrow=classic;html=1;rounded=0;fontSize=14;" edge="1" parent="1">
          <mxGeometry width="50" height="50" relative="1" as="geometry">
            <mxPoint x="485.25" y="243.5" as="sourcePoint" />
            <mxPoint x="605.25" y="243.5" as="targetPoint" />
          </mxGeometry>
        </mxCell>
        <mxCell id="1JTRFG1x_6FWv0XIalLU-13" value="" style="endArrow=classic;html=1;rounded=0;fontSize=14;" edge="1" parent="1">
          <mxGeometry width="50" height="50" relative="1" as="geometry">
            <mxPoint x="605.25" y="263.5" as="sourcePoint" />
            <mxPoint x="485.25" y="263.5" as="targetPoint" />
          </mxGeometry>
        </mxCell>
        <mxCell id="1JTRFG1x_6FWv0XIalLU-53" style="edgeStyle=none;rounded=0;orthogonalLoop=1;jettySize=auto;html=1;fontSize=14;startArrow=none;startFill=0;endArrow=classic;endFill=1;targetPerimeterSpacing=0;" edge="1" parent="1" source="1JTRFG1x_6FWv0XIalLU-16">
          <mxGeometry relative="1" as="geometry">
            <mxPoint x="464.8800000000001" y="570" as="targetPoint" />
          </mxGeometry>
        </mxCell>
        <mxCell id="1JTRFG1x_6FWv0XIalLU-55" style="edgeStyle=none;rounded=0;orthogonalLoop=1;jettySize=auto;html=1;entryX=0;entryY=0.5;entryDx=0;entryDy=0;fontSize=14;startArrow=none;startFill=0;endArrow=none;endFill=0;targetPerimeterSpacing=0;exitX=1;exitY=0.5;exitDx=0;exitDy=0;" edge="1" parent="1" source="1JTRFG1x_6FWv0XIalLU-16" target="1JTRFG1x_6FWv0XIalLU-54">
          <mxGeometry relative="1" as="geometry" />
        </mxCell>
        <mxCell id="1JTRFG1x_6FWv0XIalLU-16" value="网关" style="rounded=0;whiteSpace=wrap;html=1;fillColor=#dae8fc;strokeColor=#6c8ebf;fontSize=14;" vertex="1" parent="1">
          <mxGeometry x="339.88" y="490" width="250" height="40" as="geometry" />
        </mxCell>
        <mxCell id="1JTRFG1x_6FWv0XIalLU-18" value="业务1&lt;br style=&quot;font-size: 14px;&quot;&gt;web-server" style="rounded=0;whiteSpace=wrap;html=1;fillColor=#dae8fc;strokeColor=#6c8ebf;fontSize=14;" vertex="1" parent="1">
          <mxGeometry x="342.5" y="581" width="80" height="40" as="geometry" />
        </mxCell>
        <mxCell id="1JTRFG1x_6FWv0XIalLU-19" value="DB" style="rounded=0;whiteSpace=wrap;html=1;fillColor=#dae8fc;strokeColor=#6c8ebf;fontSize=14;" vertex="1" parent="1">
          <mxGeometry x="337" y="767" width="263" height="40" as="geometry" />
        </mxCell>
        <mxCell id="1JTRFG1x_6FWv0XIalLU-23" value="ZK" style="rounded=0;whiteSpace=wrap;html=1;fillColor=#eeeeee;strokeColor=#36393d;fontSize=14;" vertex="1" parent="1">
          <mxGeometry x="680" y="554" width="70" height="40" as="geometry" />
        </mxCell>
        <mxCell id="1JTRFG1x_6FWv0XIalLU-29" value="促销&lt;br style=&quot;font-size: 14px;&quot;&gt;service" style="rounded=0;whiteSpace=wrap;html=1;fillColor=#dae8fc;strokeColor=#6c8ebf;fontSize=14;" vertex="1" parent="1">
          <mxGeometry x="342.5" y="679" width="80" height="40" as="geometry" />
        </mxCell>
        <mxCell id="1JTRFG1x_6FWv0XIalLU-30" value="会员&lt;br style=&quot;font-size: 14px;&quot;&gt;service" style="rounded=0;whiteSpace=wrap;html=1;fillColor=#dae8fc;strokeColor=#6c8ebf;fontSize=14;" vertex="1" parent="1">
          <mxGeometry x="428.25" y="679" width="80" height="40" as="geometry" />
        </mxCell>
        <mxCell id="1JTRFG1x_6FWv0XIalLU-31" value="...&lt;br style=&quot;font-size: 14px;&quot;&gt;service" style="rounded=0;whiteSpace=wrap;html=1;fillColor=#dae8fc;strokeColor=#6c8ebf;fontSize=14;" vertex="1" parent="1">
          <mxGeometry x="512.5" y="679" width="80" height="40" as="geometry" />
        </mxCell>
        <mxCell id="1JTRFG1x_6FWv0XIalLU-35" value="网关" style="text;html=1;strokeColor=none;fillColor=none;align=center;verticalAlign=middle;whiteSpace=wrap;rounded=0;fontSize=14;" vertex="1" parent="1">
          <mxGeometry x="269.94" y="495" width="40.12" height="30" as="geometry" />
        </mxCell>
        <mxCell id="1JTRFG1x_6FWv0XIalLU-36" value="站点层" style="text;html=1;strokeColor=none;fillColor=none;align=center;verticalAlign=middle;whiteSpace=wrap;rounded=0;fontSize=14;" vertex="1" parent="1">
          <mxGeometry x="247.5" y="588" width="90" height="30" as="geometry" />
        </mxCell>
        <mxCell id="1JTRFG1x_6FWv0XIalLU-37" value="基础 &lt;br style=&quot;font-size: 14px;&quot;&gt;service" style="text;html=1;strokeColor=none;fillColor=none;align=center;verticalAlign=middle;whiteSpace=wrap;rounded=0;fontSize=14;" vertex="1" parent="1">
          <mxGeometry x="247.5" y="690" width="90" height="30" as="geometry" />
        </mxCell>
        <mxCell id="1JTRFG1x_6FWv0XIalLU-41" value="ES" style="rounded=0;whiteSpace=wrap;html=1;fillColor=#eeeeee;strokeColor=#36393d;fontSize=14;" vertex="1" parent="1">
          <mxGeometry x="770" y="553" width="70" height="40" as="geometry" />
        </mxCell>
        <mxCell id="1JTRFG1x_6FWv0XIalLU-42" value="Redis" style="rounded=0;whiteSpace=wrap;html=1;fillColor=#eeeeee;strokeColor=#36393d;fontSize=14;" vertex="1" parent="1">
          <mxGeometry x="680" y="609" width="70" height="40" as="geometry" />
        </mxCell>
        <mxCell id="1JTRFG1x_6FWv0XIalLU-43" value="MQ" style="rounded=0;whiteSpace=wrap;html=1;fillColor=#eeeeee;strokeColor=#36393d;fontSize=14;" vertex="1" parent="1">
          <mxGeometry x="770" y="609" width="70" height="40" as="geometry" />
        </mxCell>
        <mxCell id="1JTRFG1x_6FWv0XIalLU-44" value="业务1&lt;br style=&quot;font-size: 14px;&quot;&gt;web-server" style="rounded=0;whiteSpace=wrap;html=1;fillColor=#dae8fc;strokeColor=#6c8ebf;fontSize=14;" vertex="1" parent="1">
          <mxGeometry x="428.25" y="581" width="80" height="40" as="geometry" />
        </mxCell>
        <mxCell id="1JTRFG1x_6FWv0XIalLU-45" value="业务1&lt;br style=&quot;font-size: 14px;&quot;&gt;web-server" style="rounded=0;whiteSpace=wrap;html=1;fillColor=#dae8fc;strokeColor=#6c8ebf;fontSize=14;" vertex="1" parent="1">
          <mxGeometry x="512.5" y="581" width="80" height="40" as="geometry" />
        </mxCell>
        <mxCell id="1JTRFG1x_6FWv0XIalLU-60" value="存储层" style="text;html=1;strokeColor=none;fillColor=none;align=center;verticalAlign=middle;whiteSpace=wrap;rounded=0;fontSize=14;" vertex="1" parent="1">
          <mxGeometry x="245" y="772" width="90" height="30" as="geometry" />
        </mxCell>
        <mxCell id="1JTRFG1x_6FWv0XIalLU-61" value="中间件" style="text;html=1;strokeColor=none;fillColor=none;align=center;verticalAlign=middle;whiteSpace=wrap;rounded=0;fontSize=14;" vertex="1" parent="1">
          <mxGeometry x="730" y="512" width="60" height="30" as="geometry" />
        </mxCell>
        <mxCell id="1JTRFG1x_6FWv0XIalLU-62" value="example.com" style="text;html=1;strokeColor=none;fillColor=none;align=center;verticalAlign=middle;whiteSpace=wrap;rounded=0;fontSize=14;" vertex="1" parent="1">
          <mxGeometry x="512.5" y="210" width="60" height="30" as="geometry" />
        </mxCell>
        <mxCell id="1JTRFG1x_6FWv0XIalLU-63" value="&lt;span style=&quot;color: rgb(51 , 51 , 51) ; font-family: &amp;#34;arial&amp;#34; , sans-serif ; font-size: 13px ; background-color: rgb(255 , 255 , 255)&quot;&gt;114.203.94.120&lt;/span&gt;" style="text;html=1;strokeColor=none;fillColor=none;align=center;verticalAlign=middle;whiteSpace=wrap;rounded=0;fontSize=14;" vertex="1" parent="1">
          <mxGeometry x="512.5" y="260" width="60" height="30" as="geometry" />
        </mxCell>
      </root>
    </mxGraphModel>
  </diagram>
</mxfile>
